<svg width="56" height="42" viewBox="0 0 56 42" fill="none" xmlns="http://www.w3.org/2000/svg">
<path d="M51.8668 10C52.3472 10 52.7985 10.0887 53.2207 10.2661C53.6429 10.4435 54.0141 10.7021 54.3344 11.0421C54.6546 11.3821 54.9021 11.759 55.0768 12.1729C55.2515 12.5868 55.3461 13.0451 55.3607 13.5476V37.6716C55.3607 38.1594 55.2733 38.6176 55.0986 39.0463C54.9239 39.475 54.6692 39.8519 54.3344 40.1771C53.9995 40.5023 53.6283 40.7536 53.2207 40.931C52.8131 41.1084 52.3618 41.2045 51.8668 41.2192H14.1332C13.6528 41.2192 13.2015 41.1306 12.7793 40.9532C12.3571 40.7758 11.9859 40.5171 11.6656 40.1771C11.3454 39.8371 11.0979 39.4602 10.9232 39.0463C10.7485 38.6324 10.6539 38.1742 10.6393 37.6716V13.5476C10.6393 13.0598 10.7267 12.6016 10.9014 12.1729C11.0761 11.7443 11.3308 11.3673 11.6656 11.0421C12.0005 10.7169 12.3717 10.4656 12.7793 10.2882C13.1869 10.1109 13.6382 10.0148 14.1332 10H51.8668ZM14.1332 12.8381C13.9294 12.8381 13.762 12.9046 13.6309 13.0377C13.4999 13.1707 13.4344 13.3407 13.4344 13.5476V18.5143H52.5656V13.5476C52.5656 13.3407 52.5001 13.1707 52.3691 13.0377C52.238 12.9046 52.0706 12.8381 51.8668 12.8381H14.1332ZM51.8668 38.3811C52.0706 38.3811 52.238 38.3146 52.3691 38.1816C52.5001 38.0485 52.5656 37.8786 52.5656 37.6716V21.3525H13.4344V37.6716C13.4344 37.8786 13.4999 38.0485 13.6309 38.1816C13.762 38.3146 13.9294 38.3811 14.1332 38.3811H51.8668Z" fill="#FF9F45"/>
<path d="M33 35.6313V29.173M30.6149 34.824V29.173C30.6149 28.3658 31.0919 26.7512 33 26.7512C34.9081 26.7512 35.3851 28.3658 35.3851 29.173V34.0167M28.2297 31.5949V29.173C28.2297 27.5585 29.1838 24.3293 33 24.3293C36.8162 24.3293 37.7703 27.5585 37.7703 29.173M37.7703 32.4022V31.5949M29.0248 22.7148H27.4347C27.013 22.7148 26.6085 22.8849 26.3103 23.1876C26.0121 23.4904 25.8446 23.9011 25.8446 24.3293V25.9439M25.8446 34.0167V35.6313C25.8446 36.0595 26.0121 36.4702 26.3103 36.773C26.6085 37.0758 27.013 37.2459 27.4347 37.2459H29.0248M36.9752 37.2459H38.5653C38.987 37.2459 39.3915 37.0758 39.6897 36.773C39.9879 36.4702 40.1554 36.0595 40.1554 35.6313V34.0167M40.1554 25.9439V24.3293C40.1554 23.9011 39.9879 23.4904 39.6897 23.1876C39.3915 22.8849 38.987 22.7148 38.5653 22.7148H36.9752" stroke="#FF9F45" stroke-linecap="round" stroke-linejoin="round"/>
<ellipse cx="22.1393" cy="21" rx="21.5" ry="21" fill="#FF9F45" fill-opacity="0.25"/>
</svg>
