<svg width="62" height="49" viewBox="0 0 62 49" fill="none" xmlns="http://www.w3.org/2000/svg">
<ellipse cx="22.2381" cy="21.2908" rx="21.7977" ry="21.2908" fill="#FF9F45" fill-opacity="0.25"/>
<path d="M25.2314 23.3185C24.5719 23.3185 23.9395 23.5321 23.4733 23.9123C23.007 24.2926 22.745 24.8084 22.745 25.3461C22.745 25.8839 23.007 26.3997 23.4733 26.7799C23.9395 27.1602 24.5719 27.3738 25.2314 27.3738C25.8908 27.3738 26.5232 27.1602 26.9895 26.7799C27.4557 26.3997 27.7177 25.8839 27.7177 25.3461C27.7177 24.8084 27.4557 24.2926 26.9895 23.9123C26.5232 23.5321 25.8908 23.3185 25.2314 23.3185ZM33.1876 23.3185C32.5282 23.3185 31.8958 23.5321 31.4295 23.9123C30.9633 24.2926 30.7013 24.8084 30.7013 25.3461C30.7013 25.8839 30.9633 26.3997 31.4295 26.7799C31.8958 27.1602 32.5282 27.3738 33.1876 27.3738C33.847 27.3738 34.4795 27.1602 34.9457 26.7799C35.412 26.3997 35.674 25.8839 35.674 25.3461C35.674 24.8084 35.412 24.2926 34.9457 23.9123C34.4795 23.5321 33.847 23.3185 33.1876 23.3185ZM38.6576 25.3461C38.6576 24.8084 38.9195 24.2926 39.3858 23.9123C39.8521 23.5321 40.4845 23.3185 41.1439 23.3185C41.8033 23.3185 42.4357 23.5321 42.902 23.9123C43.3683 24.2926 43.6302 24.8084 43.6302 25.3461C43.6302 25.8839 43.3683 26.3997 42.902 26.7799C42.4357 27.1602 41.8033 27.3738 41.1439 27.3738C40.4845 27.3738 39.8521 27.1602 39.3858 26.7799C38.9195 26.3997 38.6576 25.8839 38.6576 25.3461Z" fill="#FF9F45"/>
<path fill-rule="evenodd" clip-rule="evenodd" d="M44.632 12.5671C38.1306 12.0635 31.5952 12.0342 25.0887 12.4795L24.6229 12.5123C21.6313 12.7174 18.8355 13.9413 16.7952 15.9389C14.755 17.9366 13.621 20.5605 13.6204 23.2852V41.9529C13.6207 42.2371 13.7021 42.5164 13.8566 42.7635C14.0112 43.0106 14.2337 43.217 14.5023 43.3628C14.7709 43.5085 15.0766 43.5885 15.3894 43.5949C15.7022 43.6014 16.0115 43.534 16.2872 43.3995L25.7234 38.7945C26.1633 38.5797 26.6551 38.4675 27.1545 38.4679H48.8168C51.5487 38.4679 53.8896 36.6925 54.3795 34.253C55.3739 29.3061 55.4511 24.243 54.6112 19.2719L54.3651 17.8056C54.1461 16.5098 53.4538 15.3185 52.3993 14.4233C51.3448 13.528 49.9896 12.9808 48.5513 12.8696L44.632 12.5671ZM25.3638 15.7584C31.6775 15.3258 38.0192 15.3536 44.3279 15.8417L48.2472 16.1464C49.5408 16.2472 50.593 17.1393 50.7885 18.3053L51.0371 19.7695C51.8144 24.3796 51.741 29.0752 50.8199 33.6634C50.7346 34.0889 50.4876 34.4738 50.122 34.7509C49.7564 35.0281 49.2954 35.18 48.8192 35.1802H27.1545C26.0578 35.1804 24.9782 35.4274 24.0123 35.8991L17.2405 39.2044V23.283C17.2406 21.3874 18.0291 19.5619 19.4482 18.1719C20.8672 16.7819 22.812 15.9301 24.8932 15.7869L25.3614 15.7562L25.3638 15.7584Z" fill="#FF9F45"/>
<path d="M57.5 33.2694L59.5 37.5L58.4766 41L56.5 43L54 46.5H51L48.5 45.4356H44.7897L41.2413 44.9286L41 41L38.5 37.5L39.1081 34.327L39.2136 33.7763L39.9845 33.3909L45.5 27.5L53.5 28L56.5 30.5L57.5 33.2694Z" fill="white"/>
<path d="M49.2736 31.8343C48.195 31.812 47.134 32.1101 46.2247 32.6908C45.3155 33.2715 44.5989 34.1088 44.1656 35.0968C43.7322 36.0848 43.6015 37.1791 43.7901 38.2414C43.9787 39.3036 44.478 40.2861 45.225 41.0646C45.9719 41.843 46.9329 42.3825 47.9865 42.6148C49.04 42.8471 50.1388 42.7617 51.1438 42.3695C52.1489 41.9774 53.0151 41.296 53.6328 40.4115C54.2506 39.527 54.5923 38.4792 54.6145 37.4006C54.6427 35.9547 54.0963 34.5566 53.095 33.5131C52.0937 32.4696 50.7194 31.8659 49.2736 31.8343ZM49.1002 40.2245C48.5194 40.2125 47.9553 40.0285 47.479 39.6959C47.0028 39.3632 46.6358 38.8968 46.4247 38.3557C46.2135 37.8145 46.1675 37.2228 46.2926 36.6555C46.4177 36.0882 46.7082 35.5708 47.1274 35.1686C47.5465 34.7664 48.0756 34.4975 48.6475 34.396C49.2195 34.2944 49.8088 34.3648 50.3408 34.5981C50.8727 34.8315 51.3236 35.2173 51.6363 35.7069C51.949 36.1965 52.1095 36.7678 52.0975 37.3486C52.0814 38.1274 51.7566 38.868 51.1945 39.4073C50.6324 39.9466 49.8791 40.2406 49.1002 40.2245ZM61.149 35.2725C61.1172 35.0945 61.0474 34.9254 60.9443 34.7768C60.8413 34.6282 60.7075 34.5035 60.5519 34.4113L57.6717 32.6888L57.7281 29.4048C57.7312 29.2226 57.6947 29.0419 57.6212 28.8752C57.5476 28.7085 57.4388 28.5597 57.3021 28.4391C56.1481 27.4211 54.8115 26.6313 53.3631 26.1114C53.1979 26.0518 53.0221 26.0275 52.8469 26.04C52.6717 26.0524 52.5011 26.1014 52.346 26.1837L49.3575 27.7724L46.4372 26.0606C46.2855 25.9715 46.1167 25.9151 45.9418 25.8952C45.7669 25.8754 45.5898 25.8924 45.4219 25.9452C43.9528 26.4068 42.5847 27.143 41.39 28.1146C41.249 28.2292 41.1344 28.3731 41.0542 28.5363C40.9741 28.6994 40.9302 28.878 40.9256 29.0598L40.843 32.3463L37.8984 33.9443C37.7392 34.0304 37.6003 34.1498 37.4914 34.2944C37.3825 34.439 37.3061 34.6053 37.2673 34.7822C36.9402 36.2686 36.9084 37.8048 37.1739 39.3034C37.2056 39.4813 37.2753 39.6503 37.3781 39.7989C37.4809 39.9475 37.6146 40.0722 37.7699 40.1646L40.6532 41.8872L40.5969 45.1711C40.5938 45.3533 40.6303 45.534 40.7038 45.7007C40.7774 45.8675 40.8862 46.0163 41.0229 46.1368C42.1769 47.1548 43.5135 47.9447 44.9618 48.4646C45.127 48.5241 45.3029 48.5484 45.4781 48.536C45.6532 48.5235 45.8239 48.4745 45.979 48.3922L48.9643 46.8035L51.8815 48.5152C52.0332 48.6044 52.202 48.6607 52.3769 48.6806C52.5518 48.7005 52.7289 48.6834 52.8968 48.6306C54.3659 48.169 55.734 47.4328 56.9287 46.4612C57.0697 46.3466 57.1843 46.2027 57.2645 46.0395C57.3446 45.8764 57.3885 45.6978 57.3931 45.516L57.4757 42.2295L60.4266 40.6316C60.5858 40.5456 60.7246 40.4262 60.8336 40.2816C60.9425 40.137 61.0189 39.9706 61.0577 39.7938C61.3841 38.3072 61.4151 36.771 61.149 35.2725ZM58.7037 38.7033L55.8515 40.2475C55.6489 40.3569 55.4803 40.5201 55.3644 40.7191C55.3056 40.8228 55.2438 40.9191 55.1798 41.0174C55.0514 41.2133 54.9802 41.4411 54.9742 41.6752L54.8938 44.8559C54.2048 45.3524 53.4531 45.7556 52.6583 46.0551L49.8438 44.4032C49.6582 44.2941 49.4478 44.2345 49.2326 44.23L48.8414 44.2219C48.6166 44.212 48.3932 44.262 48.1942 44.367L45.3107 45.898C44.5277 45.5675 43.7915 45.1354 43.1214 44.6126L43.1753 41.4409C43.1792 41.2064 43.1175 40.9754 42.9971 40.7741C42.9383 40.6743 42.8796 40.5713 42.8251 40.4684C42.7173 40.266 42.556 40.0972 42.3588 39.9803L39.5709 38.31C39.478 37.499 39.495 36.6792 39.6213 35.8727L42.4735 34.3284C42.6758 34.219 42.8443 34.0563 42.9606 33.8579C43.0194 33.7542 43.0812 33.6569 43.1452 33.5585C43.2735 33.3626 43.3447 33.1348 43.3508 32.9007L43.428 29.72C44.1173 29.2249 44.8689 28.8231 45.6634 28.525L48.4779 30.1769C48.6723 30.2913 48.894 30.351 49.1196 30.3496L49.4804 30.3571C49.7052 30.3671 49.9286 30.317 50.1276 30.212L53.0111 28.6778C53.7942 29.0083 54.5303 29.4405 55.2005 29.9633L55.1465 33.135C55.1426 33.3695 55.2044 33.6005 55.3247 33.8018C55.3835 33.9016 55.4422 34.0046 55.4968 34.1075C55.6045 34.3099 55.7658 34.4787 55.963 34.5956L58.751 36.2616C58.8453 37.0739 58.8294 37.8952 58.7037 38.7033Z" fill="#FF9F45"/>
</svg>
