<svg width="58" height="42" viewBox="0 0 58 42" fill="none" xmlns="http://www.w3.org/2000/svg">
<path d="M50.4154 29.4501V36.05C50.4154 36.9575 49.6504 37.7 48.7156 37.7H28.3181C27.3832 37.7 26.6183 36.9575 26.6183 36.05V16.2502C26.6183 15.3427 27.3832 14.6002 28.3181 14.6002H33.4515C34.3864 14.6002 35.1513 13.8577 35.1513 12.9502C35.1513 12.0427 34.3864 11.3002 33.4515 11.3002H26.6183C24.7486 11.3002 23.2188 12.7852 23.2188 14.6002V37.7C23.2188 39.515 24.7486 41 26.6183 41H50.4154C52.2851 41 53.8149 39.515 53.8149 37.7V29.4501C53.8149 28.5426 53.05 27.8001 52.1151 27.8001C51.1803 27.8001 50.4154 28.5426 50.4154 29.4501ZM46.1659 34.4H30.9018C30.1879 34.4 29.7969 33.6081 30.2389 33.0636L33.1965 29.3841C33.2749 29.2867 33.3747 29.2077 33.4888 29.1528C33.6028 29.098 33.7281 29.0686 33.8553 29.0671C33.9826 29.0655 34.1086 29.0917 34.2241 29.1437C34.3395 29.1957 34.4414 29.2722 34.5223 29.3676L37.174 32.4696L41.1685 27.4866C41.5085 27.0576 42.1884 27.0576 42.5113 27.5031L46.8458 33.0966C47.2707 33.6246 46.8628 34.4 46.1659 34.4ZM52.6251 19.3687C53.441 18.0982 53.8999 16.6132 53.7979 14.9797C53.577 11.4322 50.6703 8.42924 47.0498 8.04974C45.9779 7.9287 44.8918 8.02918 43.8628 8.34457C42.8337 8.65997 41.8851 9.18315 41.0792 9.87974C40.2733 10.5763 39.6283 11.4306 39.1867 12.3863C38.7451 13.3421 38.5168 14.3777 38.5168 15.4252C38.5168 19.5337 41.9334 22.8501 46.1489 22.8501C47.6447 22.8501 49.0385 22.4211 50.2114 21.6951L54.3079 25.6716C54.9708 26.3151 56.0586 26.3151 56.7216 25.6716C57.3845 25.0281 57.3845 23.9721 56.7216 23.3286L52.6251 19.3687ZM46.1659 19.5502C45.0389 19.5502 43.958 19.1156 43.1611 18.342C42.3641 17.5684 41.9164 16.5192 41.9164 15.4252C41.9164 14.3312 42.3641 13.282 43.1611 12.5084C43.958 11.7348 45.0389 11.3002 46.1659 11.3002C47.2929 11.3002 48.3738 11.7348 49.1707 12.5084C49.9676 13.282 50.4154 14.3312 50.4154 15.4252C50.4154 16.5192 49.9676 17.5684 49.1707 18.342C48.3738 19.1156 47.2929 19.5502 46.1659 19.5502Z" fill="#FF9F45"/>
<ellipse cx="22.2812" cy="21" rx="21.5" ry="21" fill="#FF9F45" fill-opacity="0.25"/>
</svg>
