<svg width="58" height="52" viewBox="0 0 58 52" fill="none" xmlns="http://www.w3.org/2000/svg">
<path d="M15.0248 10.9862L6.5114 31.8998C5.76594 33.731 6.64616 35.8199 8.47742 36.5654L43.071 50.6475C44.9022 51.393 46.9911 50.5128 47.7366 48.6815L56.25 27.7679C56.9954 25.9366 56.1152 23.8478 54.2839 23.1023L19.6904 9.02018C17.8591 8.27471 15.7703 9.15489 15.0248 10.9862Z" fill="#FF9F45"/>
<g opacity="0.4">
<path d="M15.0248 10.9861L6.5114 31.8997C5.76594 33.731 6.64616 35.8199 8.47742 36.5653L43.071 50.6475C44.9022 51.393 46.9911 50.5127 47.7366 48.6815L56.25 27.7679C56.9954 25.9366 56.1152 23.8478 54.2839 23.1023L19.6904 9.02015C17.8591 8.27468 15.7703 9.15486 15.0248 10.9861Z" fill="black"/>
</g>
<path d="M44.3 25C44.3475 24.8152 44.4181 24.6372 44.51 24.47C44.7 24.08 44.93 23.6 45.21 23C46.0979 21.2254 46.8338 19.3788 47.41 17.48C48.2877 14.6803 48.2245 11.6703 47.23 8.90998C46.5906 7.32087 45.4988 5.95439 44.09 4.97997C42.5253 3.95143 40.8476 3.10591 39.09 2.45999C35.58 1.03999 31.82 0.319976 28.66 1.30998C27.1794 1.76448 25.831 2.5708 24.73 3.65998C23.7601 4.61513 22.9348 5.70661 22.28 6.89997C21.3501 8.65321 20.5995 10.4959 20.04 12.4L19.55 13.95C19.4985 14.132 19.4315 14.3093 19.35 14.48C19.3539 14.2892 19.3877 14.1003 19.45 13.92C19.53 13.56 19.66 13.02 19.84 12.34C20.3346 10.3948 21.0422 8.51005 21.95 6.71998C22.6053 5.48309 23.4411 4.35067 24.43 3.35998C25.5632 2.19597 26.969 1.33323 28.52 0.849985C30.2345 0.338328 32.0409 0.211971 33.81 0.479975C35.6915 0.752173 37.5321 1.256 39.29 1.97997C41.0509 2.64778 42.7287 3.51689 44.29 4.56999C45.7745 5.60011 46.9197 7.048 47.58 8.72997C48.5998 11.5867 48.6314 14.7031 47.67 17.58C47.0591 19.4886 46.2654 21.3338 45.3 23.09C44.97 23.72 44.7 24.2 44.52 24.52C44.4609 24.6861 44.3873 24.8468 44.3 25Z" fill="#464645"/>
<path d="M9.87514 8.70719L1.36173 29.6208C0.616274 31.4521 1.4965 33.5409 3.32776 34.2864L37.9213 48.3685C39.7526 49.114 41.8414 48.2338 42.5869 46.4025L51.1003 25.4889C51.8458 23.6577 50.9655 21.5688 49.1343 20.8233L14.5407 6.74116C12.7095 5.99569 10.6206 6.87593 9.87514 8.70719Z" fill="#FF9F45"/>
<g opacity="0.7">
<path d="M6.07999 18C8.80892 19.772 11.6518 21.3621 14.59 22.76C17.59 24 14.79 24.76 19.75 24.22C24.71 23.68 25.15 23.66 26.26 24.56C27.37 25.46 27.87 26.76 28.72 27.22C29.496 27.5932 30.2903 27.9269 31.1 28.22C31.1 28.22 34.72 29.73 35.55 29.96C41.38 31.58 42.71 30.18 44.37 32.63C46.03 35.08 47.12 35.21 47.12 35.21L48.25 32.43L43 30.3C43 30.3 40.58 28.3 39.87 27.84C39.16 27.38 38.87 26.39 37.59 26.92C36.5854 27.3001 35.5126 27.467 34.44 27.41C33.7 27.41 31.08 26.96 31.08 26.96L28.8 26.03L28.29 24.03L26.21 22.59L25.09 22.43L22.28 21.73L18.37 21.17L14.37 20.17L12.09 19.24L8.64001 19.02L6.07999 18Z" fill="white"/>
</g>
<g opacity="0.7">
<path d="M5.26001 23.26L11.21 27.89L14.16 30.43C14.16 30.43 18.16 32.63 19.48 32.59C20.6838 32.6825 21.8653 32.9661 22.98 33.43L24.98 35.09L27.76 36.22L30.85 36.62L33.62 36.7L36.03 37.7L39.2 38.99L42.11 40.18L43.88 40.9L44.33 42.11L45.33 39.6L37.09 34L30.88 33.28L25.75 31.2L23.41 28.44L19.26 28.11L15.38 27.11L11.17 25.11L6.73999 23.31L5.26001 23.26Z" fill="white"/>
</g>
<g opacity="0.7">
<path d="M2.79001 26.06L5.45999 32.94L7.73001 36.07L14.95 39.01L10.47 31.88L6.98001 29.57L4.13 26.05L3.23999 24.95L2.79001 26.06Z" fill="white"/>
</g>
<g opacity="0.7">
<path d="M14.02 32.58L18.85 37.06L19.64 40.92L24.33 42.82L29.77 45.04L33.36 43.48L37.84 43.01L39.74 43.05L36.07 41.56L31.54 41.78L28.04 41.31L24.43 38.22L20.37 36.57L19.22 34.7L17.27 33.31L14.02 32.58Z" fill="white"/>
</g>
<g opacity="0.7">
<path d="M9.41 13.58L16.31 14.77L22 13.4L26 12.4L30.33 15.2L35.33 17.54L41.55 18.74L45.55 19.17L48.64 21.76L50.06 26.62L50.14 27.86L49.58 29.24L46.11 23.98C45.213 23.1019 44.2683 22.2739 43.28 21.5C42.9 21.34 41.15 20.19 40.37 20.31C38.6745 20.3561 36.9836 20.1126 35.37 19.59C33.55 19 30.31 18.13 30.31 18.13L27.31 16.29L25.54 15.57H21.25L18.8 16.49L16.58 17.6L12.9 16.11L7.60001 14.46L8.39001 12.54L9.41 13.58Z" fill="white"/>
</g>
<g opacity="0.7">
<path d="M17.22 8.29999L9.29001 10.1L8.69 11.56L13.25 11.6L17.54 11.23L20.36 9.57999L17.22 8.29999Z" fill="white"/>
</g>
<path d="M37.91 48.35C38.3656 48.4953 38.8418 48.5662 39.32 48.56C39.9998 48.5408 40.6594 48.3246 41.2186 47.9376C41.7779 47.5506 42.2126 47.0095 42.47 46.38L48.14 32.22C48.7534 30.72 49.3834 29.1566 50.03 27.53C50.35 26.72 50.73 25.87 51.03 25.05C51.2707 24.1981 51.1665 23.2857 50.74 22.51C50.2794 21.7073 49.5274 21.1128 48.64 20.85L45.88 19.73L40.11 17.4L14.43 6.99998C13.9014 6.78708 13.327 6.71298 12.7617 6.78474C12.1963 6.85651 11.6587 7.07175 11.2 7.40999C10.763 7.74854 10.419 8.19236 10.2 8.69998L9.51002 10.35L6.85002 16.9C5.09002 21.1933 3.40666 25.3167 1.8 29.27C1.57496 29.7217 1.4295 30.2088 1.37 30.71C1.31309 31.4367 1.49267 32.1624 1.88194 32.7788C2.27121 33.3951 2.84931 33.8691 3.53001 34.13L8.97001 36.35L18.71 40.35L32.81 46.18L36.63 47.79L37.63 48.22C37.7441 48.2644 37.8545 48.3179 37.96 48.38C37.8398 48.3558 37.7224 48.3189 37.61 48.27L36.61 47.89L32.75 46.37L18.59 40.7L8.82002 36.75L3.38001 34.55C2.86999 34.3574 2.40711 34.0578 2.02247 33.6714C1.63783 33.2851 1.34034 32.8209 1.15 32.31C0.953057 31.787 0.874525 31.2269 0.920023 30.67C0.979848 30.1217 1.13198 29.5875 1.37 29.09L6.37 16.7C7.25 14.56 8.13001 12.37 9.03001 10.16C9.26001 9.59999 9.47001 9.04998 9.72001 8.47998C9.9807 7.89409 10.3869 7.38462 10.9 6.99998C11.4301 6.61022 12.0511 6.36245 12.7039 6.28019C13.3568 6.19793 14.0198 6.28391 14.63 6.52998L40.28 17L46.03 19.36L48.79 20.49C49.7699 20.7911 50.5968 21.4569 51.1 22.35C51.5779 23.2283 51.6893 24.2599 51.41 25.22C51.09 26.12 50.73 26.91 50.41 27.73L48.49 32.41C46.03 38.34 44.04 43.15 42.66 46.5C42.3329 47.2601 41.7585 47.8874 41.03 48.28C40.506 48.5679 39.9179 48.7192 39.32 48.72C38.8253 48.7252 38.3383 48.5975 37.91 48.35Z" fill="#464645"/>
</svg>
