<svg width="51" height="80" viewBox="0 0 51 80" fill="none" xmlns="http://www.w3.org/2000/svg">
<mask id="mask0_109_920" style="mask-type:luminance" maskUnits="userSpaceOnUse" x="0" y="9" width="43" height="71">
<path d="M0.740005 21.21L17.59 9L39.49 34.93C40.6411 36.2933 41.4467 37.914 41.8384 39.6547C42.2301 41.3955 42.1963 43.205 41.74 44.93L34.36 72.93C33.8081 75.0478 32.5338 76.9063 30.7572 78.1844C28.9806 79.4626 26.8134 80.08 24.63 79.93C23.3513 79.8377 22.1049 79.4846 20.9679 78.8923C19.8308 78.3 18.8271 77.4811 18.0186 76.4861C17.21 75.4912 16.6138 74.3411 16.2666 73.107C15.9195 71.8728 15.8287 70.5806 16 69.31L19.24 44L0.740005 21.21Z" fill="white"/>
</mask>
<g mask="url(#mask0_109_920)">
<path d="M0.740005 21.21L17.59 9L39.49 34.93C40.6411 36.2933 41.4467 37.914 41.8384 39.6547C42.2301 41.3955 42.1963 43.205 41.74 44.93L34.36 72.93C33.8081 75.0478 32.5338 76.9063 30.7572 78.1844C28.9806 79.4626 26.8134 80.08 24.63 79.93C23.3513 79.8377 22.1049 79.4846 20.9679 78.8923C19.8308 78.3 18.8271 77.4811 18.0186 76.4861C17.21 75.4912 16.6138 74.3411 16.2666 73.107C15.9195 71.8728 15.8287 70.5806 16 69.31L19.24 44L0.740005 21.21Z" fill="#FF9F45"/>
<path d="M16.9 42.58C16.7317 42.2579 16.588 41.9237 16.47 41.58C16.1 40.6894 15.7828 39.7778 15.52 38.85C13.7068 32.6838 13.7068 26.1261 15.52 19.96C15.7987 19.0276 16.1326 18.1127 16.52 17.22C16.6353 16.8737 16.7826 16.5389 16.96 16.22C16.8755 16.5612 16.7652 16.8955 16.63 17.22C16.39 17.86 16.1 18.8 15.77 19.97C14.1035 26.1157 14.1035 32.5943 15.77 38.74C16.09 39.91 16.38 40.85 16.62 41.49C16.7473 41.8437 16.841 42.2087 16.9 42.58Z" fill="#FAFAFA"/>
<path d="M17.28 30.38C16.5203 31.6216 15.9507 32.9698 15.59 34.38C15.3255 35.7979 15.2783 37.2479 15.45 38.68C15.27 38.2856 15.1616 37.8624 15.13 37.43C14.8749 35.3368 15.3443 33.2193 16.46 31.43C16.6672 31.033 16.9451 30.6772 17.28 30.38Z" fill="#FAFAFA"/>
<path d="M11.66 24.8C11.9681 25.0391 12.232 25.3301 12.44 25.66C12.9925 26.4185 13.4305 27.2541 13.74 28.14C14.0565 29.0284 14.2418 29.9581 14.29 30.9C14.3322 31.2878 14.3086 31.68 14.22 32.06C14.0905 30.7676 13.8326 29.4913 13.45 28.25C12.9668 27.0446 12.3673 25.8891 11.66 24.8Z" fill="#FAFAFA"/>
<path d="M17.67 21.68C15.9963 23.1852 14.8794 25.2112 14.5 27.43C14.4896 26.2799 14.7758 25.1466 15.3311 24.1394C15.8863 23.1322 16.6919 22.2851 17.67 21.68Z" fill="#FAFAFA"/>
<path d="M15.05 16.62C15.4165 17.4496 15.5974 18.3493 15.5801 19.2561C15.5629 20.1629 15.3478 21.0549 14.95 21.87C14.86 21.87 15.25 20.7 15.26 19.25C15.27 17.8 15 16.64 15.05 16.62Z" fill="#FAFAFA"/>
<path d="M35.26 78.22C35.0875 77.8986 34.9404 77.5643 34.82 77.22C34.4532 76.3248 34.136 75.4101 33.87 74.48C32.0703 68.3119 32.0703 61.758 33.87 55.59C34.153 54.6623 34.4868 53.7509 34.87 52.86C34.9904 52.5157 35.1375 52.1813 35.31 51.86C35.2255 52.2012 35.1152 52.5355 34.98 52.86C34.75 53.5 34.45 54.44 34.13 55.61C32.4567 61.7548 32.4567 68.2352 34.13 74.38C34.45 75.56 34.75 76.5 34.98 77.14C35.1022 77.4919 35.1959 77.853 35.26 78.22Z" fill="#FAFAFA"/>
<path d="M35.63 66C34.8654 67.239 34.2954 68.5881 33.94 70C33.6814 71.4152 33.6342 72.861 33.8 74.29C33.6246 73.8946 33.5197 73.4716 33.49 73.04C33.3591 72.0029 33.4064 70.9511 33.63 69.93C33.8562 68.9081 34.2589 67.9335 34.82 67.05C35.026 66.655 35.3002 66.2995 35.63 66Z" fill="#FAFAFA"/>
<path d="M30 60.44C30 60.44 30.36 60.71 30.78 61.29C31.3341 62.0512 31.7722 62.8903 32.08 63.78C32.3964 64.665 32.5817 65.5914 32.63 66.53C32.6786 66.9177 32.6548 67.311 32.56 67.69C32.4296 66.3977 32.1717 65.1215 31.79 63.88C31.3105 62.6761 30.7108 61.5236 30 60.44Z" fill="#FAFAFA"/>
<path d="M36 57.31C35.2162 58.1024 34.5251 58.9813 33.94 59.93C33.4404 60.9252 33.0707 61.9805 32.84 63.07C32.7686 61.912 33.0549 60.7599 33.66 59.77C34.1762 58.7342 34.9913 57.8773 36 57.31Z" fill="#FAFAFA"/>
<path d="M33.4 52.25C33.7647 53.0797 33.9456 53.9786 33.93 54.8849C33.9145 55.7911 33.703 56.6832 33.31 57.5C33.22 57.5 33.6 56.33 33.62 54.88C33.64 53.43 33.31 52.28 33.4 52.25Z" fill="#FAFAFA"/>
<path d="M26.67 64C26.5017 63.6779 26.358 63.3437 26.24 63C25.8485 62.1123 25.5145 61.2005 25.24 60.27C23.4268 54.1038 23.4268 47.5461 25.24 41.38C25.517 40.4471 25.851 39.532 26.24 38.64C26.3553 38.2937 26.5026 37.9589 26.68 37.64C26.5938 37.9807 26.4835 38.3149 26.35 38.64C26.11 39.27 25.81 40.21 25.49 41.39C23.8235 47.5357 23.8235 54.0143 25.49 60.16C25.81 61.33 26.1 62.27 26.34 62.91C26.4843 63.262 26.5948 63.627 26.67 64Z" fill="#FAFAFA"/>
<path d="M27.05 51.75C26.2915 52.9755 25.7186 54.3066 25.35 55.7C25.0916 57.1187 25.0478 58.5682 25.22 60C25.0399 59.6056 24.9316 59.1824 24.9 58.75C24.6416 56.6566 25.1113 54.5381 26.23 52.75C26.4422 52.3709 26.7198 52.0323 27.05 51.75Z" fill="#FAFAFA"/>
<path d="M21.43 46.17C21.7383 46.4088 22.0024 46.6999 22.21 47.03C22.7625 47.7885 23.2005 48.6241 23.51 49.51C23.8265 50.3984 24.0118 51.3281 24.06 52.27C24.1028 52.6545 24.0792 53.0435 23.99 53.42C23.83 50.8118 22.9432 48.3004 21.43 46.17Z" fill="#FAFAFA"/>
<path d="M27.44 43.05C26.6469 43.8329 25.9518 44.7094 25.37 45.66C24.8825 46.6603 24.5133 47.7141 24.27 48.8C24.2596 47.6499 24.5458 46.5165 25.1011 45.5093C25.6564 44.5021 26.4619 43.6551 27.44 43.05Z" fill="#FAFAFA"/>
<path d="M8.45 31.47C8.2775 31.1486 8.13038 30.8143 8.00999 30.47C7.64476 29.5742 7.32764 28.6596 7.06 27.73C5.26027 21.5619 5.26027 15.008 7.06 8.83998C7.34299 7.91232 7.67683 7.00095 8.06 6.10999C8.17771 5.76465 8.32492 5.43008 8.5 5.10999C8.41552 5.45121 8.3052 5.7855 8.17 6.10999C7.94 6.74999 7.64001 7.68999 7.32001 8.85999C5.64675 15.0048 5.64675 21.4852 7.32001 27.63C7.64001 28.8 7.94 29.75 8.17 30.38C8.29151 30.7355 8.38513 31.0999 8.45 31.47Z" fill="#FAFAFA"/>
<path d="M8.82 19.27C8.06001 20.4935 7.49018 21.8254 7.13 23.22C6.87136 24.6352 6.82418 26.0809 6.99 27.51C6.81459 27.1146 6.70966 26.6915 6.67999 26.26C6.54906 25.2229 6.59642 24.1711 6.82 23.15C7.04619 22.1281 7.44888 21.1535 8.00999 20.27C8.21719 19.8903 8.49166 19.5515 8.82 19.27Z" fill="#FAFAFA"/>
<path d="M3.2 13.68C3.51104 13.9159 3.77553 14.2075 3.98 14.54C4.53407 15.3011 4.97217 16.1403 5.28 17.03C5.5964 17.915 5.7817 18.8414 5.83 19.78C5.87858 20.1677 5.85484 20.561 5.75999 20.94C5.60184 18.3283 4.71498 15.8132 3.2 13.68Z" fill="#FAFAFA"/>
<path d="M9.21001 10.56C8.42767 11.35 7.73665 12.2255 7.14999 13.17C6.65097 14.169 6.28133 15.2275 6.05 16.32C5.97799 15.1619 6.26429 14.0097 6.86999 13.02C7.38614 11.9842 8.20133 11.1273 9.21001 10.56Z" fill="#FAFAFA"/>
<path d="M23.63 14.59C23.8577 14.8597 24.0681 15.1436 24.26 15.44C24.8107 16.2354 25.3181 17.0599 25.78 17.91C28.8534 23.5497 30.2418 29.9538 29.78 36.36C29.717 37.3257 29.6002 38.2872 29.43 39.24C29.3807 39.5781 29.3072 39.9123 29.21 40.24C29.2193 39.8848 29.2527 39.5306 29.31 39.18C29.41 38.51 29.5 37.52 29.56 36.31C29.8841 29.9495 28.5031 23.6179 25.56 17.97C25 16.9 24.51 16.04 24.14 15.47C23.9471 15.1905 23.7766 14.8963 23.63 14.59Z" fill="#FAFAFA"/>
<path d="M25.88 26.58C26.3597 25.2218 26.6327 23.7993 26.69 22.36C26.6446 20.9203 26.3746 19.4964 25.89 18.14C26.1565 18.4818 26.3536 18.8725 26.47 19.29C26.8238 20.2747 27.0031 21.3136 27 22.36C26.995 23.4065 26.8124 24.4446 26.46 25.43C26.3386 25.8456 26.142 26.2353 25.88 26.58Z" fill="#FAFAFA"/>
<path d="M32.57 30.83C32.2161 30.6648 31.8944 30.4379 31.62 30.16C30.9175 29.533 30.308 28.8091 29.81 28.01C29.3149 27.2117 28.9377 26.3461 28.69 25.44C28.5613 25.0706 28.5003 24.681 28.51 24.29C28.9157 25.5219 29.4415 26.711 30.08 27.84C30.814 28.9128 31.6477 29.914 32.57 30.83Z" fill="#FAFAFA"/>
<path d="M27.37 35.17C27.9687 34.23 28.4554 33.2232 28.82 32.17C29.0861 31.0902 29.2204 29.9821 29.22 28.87C29.5353 29.9835 29.5003 31.167 29.12 32.26C28.8453 33.385 28.2349 34.3999 27.37 35.17Z" fill="#FAFAFA"/>
<path d="M31 39.55C30.4187 38.845 30.0417 37.9942 29.91 37.09C29.6693 36.2095 29.6693 35.2805 29.91 34.4C30.01 34.4 29.91 35.6 30.17 37.03C30.43 38.46 31.1 39.5 31 39.55Z" fill="#FAFAFA"/>
<path d="M34.67 34.91C34.9009 35.1772 35.1115 35.4613 35.3 35.76C35.8543 36.553 36.3619 37.3777 36.82 38.23C39.8934 43.8697 41.2818 50.2737 40.82 56.68C40.7615 57.6461 40.6446 58.6079 40.47 59.56C40.4236 59.8987 40.35 60.2331 40.25 60.56C40.2621 60.2249 40.2955 59.8908 40.35 59.56C40.45 58.88 40.54 57.9 40.6 56.69C40.9241 50.3295 39.5431 43.9979 36.6 38.35C36.04 37.27 35.55 36.42 35.18 35.84C34.9834 35.5453 34.8128 35.2341 34.67 34.91Z" fill="#FAFAFA"/>
<path d="M36.92 46.9C37.3997 45.5418 37.6727 44.1193 37.73 42.68C37.6768 41.2387 37.4105 39.8133 36.94 38.45C37.1964 38.8003 37.3893 39.1929 37.51 39.61C37.8638 40.5947 38.0431 41.6336 38.04 42.68C38.035 43.7265 37.8524 44.7646 37.5 45.75C37.3786 46.1656 37.182 46.5553 36.92 46.9Z" fill="#FAFAFA"/>
<path d="M43.61 51.15C43.256 50.9848 42.9344 50.7579 42.66 50.48C41.9629 49.8505 41.3571 49.1269 40.86 48.33C40.3624 47.5317 39.9819 46.6663 39.73 45.76C39.6073 45.3891 39.5465 45.0006 39.55 44.61C39.9557 45.8419 40.4815 47.031 41.12 48.16C41.854 49.2328 42.6877 50.2339 43.61 51.15Z" fill="#FAFAFA"/>
<path d="M38.41 55.49C39.0099 54.5492 39.4997 53.5426 39.87 52.49C40.1302 51.4091 40.2644 50.3017 40.27 49.19C40.5727 50.305 40.538 51.4848 40.17 52.58C39.889 53.7048 39.2757 54.7189 38.41 55.49Z" fill="#FAFAFA"/>
<path d="M42.06 59.87C41.4787 59.165 41.1017 58.3142 40.97 57.41C40.7293 56.5295 40.7293 55.6005 40.97 54.72C41.07 54.72 40.97 55.92 41.23 57.35C41.49 58.78 42.14 59.82 42.06 59.87Z" fill="#FAFAFA"/>
<path d="M9.45 50.3C9.75309 50.4829 10.0407 50.6902 10.31 50.92C11.0735 51.5136 11.8046 52.1479 12.5 52.82C17.1333 57.2727 20.3922 62.9609 21.89 69.21C22.1184 70.1496 22.2953 71.1011 22.42 72.06C22.4833 72.4098 22.5167 72.7645 22.52 73.12C22.4228 72.7923 22.3493 72.4581 22.3 72.12C22.19 71.45 21.98 70.48 21.67 69.31C20.8708 66.2424 19.6704 63.2937 18.1 60.54C16.5181 57.7942 14.5852 55.2663 12.35 53.02C11.48 52.16 10.76 51.49 10.24 51.02C9.95991 50.7991 9.6959 50.5584 9.45 50.3Z" fill="#FAFAFA"/>
<path d="M15.2 61.06C15.2547 59.6227 15.0861 58.1856 14.7 56.8C14.2287 55.4398 13.5544 54.1586 12.7 53C13.0527 53.2542 13.3575 53.5691 13.6 53.93C14.8659 55.6147 15.5122 57.6843 15.43 59.79C15.4374 60.2243 15.3593 60.6559 15.2 61.06Z" fill="#FAFAFA"/>
<path d="M22.86 63.1C22.4707 63.0569 22.0936 62.938 21.75 62.75C20.0331 61.9649 18.5735 60.7099 17.54 59.13C17.3109 58.8302 17.1381 58.4914 17.03 58.13C17.7861 59.1845 18.6435 60.1624 19.59 61.05C20.6085 61.8412 21.704 62.528 22.86 63.1Z" fill="#FAFAFA"/>
<path d="M19.2 68.81C19.4906 67.7327 19.6551 66.6253 19.69 65.51C19.619 64.3994 19.4142 63.3015 19.08 62.24C19.6617 63.2329 19.9783 64.3587 19.9993 65.5093C20.0203 66.6599 19.745 67.7965 19.2 68.81Z" fill="#FAFAFA"/>
<path d="M24 71.89C23.2359 71.3976 22.6205 70.7061 22.22 69.89C21.7386 69.1143 21.476 68.2228 21.46 67.31C21.56 67.31 21.79 68.47 22.46 69.74C23.13 71.01 24.06 71.82 24 71.89Z" fill="#FAFAFA"/>
<path d="M33.45 79.65C33.4005 77.5557 32.7667 75.517 31.6201 73.7638C30.4736 72.0106 28.8599 70.6126 26.9612 69.7277C25.0624 68.8428 22.9542 68.5062 20.8743 68.7557C18.7943 69.0052 16.8256 69.831 15.19 71.14L17.28 78.22L26.36 82.64L33.45 79.65Z" fill="#FAFAFA"/>
<path d="M45.56 52.79C43.3369 52.652 41.2068 51.8477 39.4473 50.482C37.6877 49.1163 36.3802 47.2524 35.6949 45.133C35.0097 43.0136 34.9785 40.737 35.6055 38.5997C36.2325 36.4624 37.4885 34.5633 39.21 33.15L48.55 39.09L45.56 52.79Z" fill="#FAFAFA"/>
</g>
<g opacity="0.4">
<path d="M0.740005 21.21L17.59 9L39.49 34.93C40.6411 36.2933 41.4467 37.914 41.8384 39.6547C42.2301 41.3955 42.1963 43.205 41.74 44.93L34.36 72.93C33.8081 75.0478 32.5338 76.9063 30.7572 78.1844C28.9806 79.4626 26.8134 80.08 24.63 79.93C23.3513 79.8377 22.1049 79.4846 20.9679 78.8923C19.8308 78.3 18.8271 77.4811 18.0186 76.4861C17.21 75.4912 16.6138 74.3411 16.2666 73.107C15.9195 71.8728 15.8287 70.5806 16 69.31L19.24 44L0.740005 21.21Z" fill="black"/>
</g>
<mask id="mask1_109_920" style="mask-type:luminance" maskUnits="userSpaceOnUse" x="9" y="0" width="42" height="71">
<path d="M9.44 12.25L26.29 0L48.19 25.93C49.3419 27.2928 50.1479 28.9135 50.5396 30.6545C50.9313 32.3954 50.8972 34.2051 50.44 35.93L43.07 63.93C42.5178 66.0496 41.242 67.9095 39.4633 69.1878C37.6847 70.4661 35.5151 71.0824 33.33 70.93C32.0553 70.8396 30.8124 70.4901 29.6775 69.9026C28.5426 69.3152 27.5395 68.5023 26.7298 67.5137C25.92 66.5251 25.3205 65.3816 24.968 64.1533C24.6156 62.9249 24.5176 61.6376 24.68 60.37L27.94 35.11L9.44 12.25Z" fill="white"/>
</mask>
<g mask="url(#mask1_109_920)">
<path d="M9.44 12.25L26.29 0L48.19 25.93C49.3419 27.2928 50.1479 28.9135 50.5396 30.6545C50.9313 32.3954 50.8972 34.2051 50.44 35.93L43.07 63.93C42.5178 66.0496 41.242 67.9095 39.4633 69.1878C37.6847 70.4661 35.5151 71.0824 33.33 70.93C32.0553 70.8396 30.8124 70.4901 29.6775 69.9026C28.5426 69.3152 27.5395 68.5023 26.7298 67.5137C25.92 66.5251 25.3205 65.3816 24.968 64.1533C24.6156 62.9249 24.5176 61.6376 24.68 60.37L27.94 35.11L9.44 12.25Z" fill="#FF9F45"/>
<path d="M25.6 33.62C25.4344 33.2967 25.2907 32.9626 25.17 32.62C24.8032 31.7249 24.486 30.8101 24.22 29.88C22.4203 23.712 22.4203 17.1581 24.22 10.99C24.503 10.0624 24.8368 9.15097 25.22 8.26001C25.3404 7.91572 25.4875 7.58137 25.66 7.26001C25.5755 7.60123 25.4652 7.93553 25.33 8.26001C25.09 8.90001 24.8 9.84001 24.47 11.01C22.8035 17.1557 22.8035 23.6343 24.47 29.78C24.79 30.96 25.09 31.9 25.32 32.54C25.4467 32.8905 25.5404 33.2521 25.6 33.62Z" fill="#FAFAFA"/>
<path d="M26 21.42C24.3787 23.8402 23.7256 26.781 24.17 29.66C23.9879 29.2664 23.8794 28.8427 23.85 28.41C23.7231 27.3723 23.7739 26.3206 24 25.3C24.2262 24.2781 24.6289 23.3035 25.19 22.42C25.397 22.0402 25.6715 21.7013 26 21.42Z" fill="#FAFAFA"/>
<path d="M20.36 15.84C20.36 15.84 20.71 16.11 21.14 16.69C21.6903 17.4535 22.1281 18.292 22.44 19.18C22.7564 20.0649 22.9417 20.9914 22.99 21.93C23.0322 22.3178 23.0086 22.71 22.92 23.09C22.7896 21.7977 22.5317 20.5215 22.15 19.28C21.6657 18.0783 21.0663 16.9262 20.36 15.84Z" fill="#FAFAFA"/>
<path d="M26.37 12.71C25.5846 13.5036 24.8904 14.3824 24.3 15.33C23.811 16.3297 23.4417 17.3837 23.2 18.47C23.1878 17.3182 23.4732 16.1828 24.0286 15.1737C24.584 14.1646 25.3905 13.316 26.37 12.71Z" fill="#FAFAFA"/>
<path d="M23.75 7.64999C24.1619 8.46597 24.345 9.37828 24.28 10.29C24.316 11.2016 24.0979 12.1052 23.65 12.9C23.56 12.9 23.95 11.73 23.96 10.28C23.97 8.83 23.66 7.67999 23.75 7.64999Z" fill="#FAFAFA"/>
<path d="M44 69.25C43.8221 68.9313 43.6748 68.5965 43.56 68.25C43.1929 67.3583 42.8758 66.4469 42.61 65.52C40.8097 59.352 40.8097 52.798 42.61 46.63C42.8913 45.7018 43.2252 44.7903 43.61 43.9C43.7306 43.5558 43.8777 43.2214 44.05 42.9C43.9655 43.2412 43.8552 43.5755 43.72 43.9C43.49 44.54 43.19 45.48 42.87 46.65C41.1967 52.7948 41.1967 59.2752 42.87 65.42C43.19 66.59 43.49 67.53 43.72 68.17C43.8422 68.5219 43.9358 68.8831 44 69.25Z" fill="#FAFAFA"/>
<path d="M44.33 57.06C43.5712 58.2806 43.0014 59.609 42.64 61C42.3814 62.4186 42.3342 63.8676 42.5 65.3C42.3265 64.9039 42.2216 64.4812 42.19 64.05C42.0591 63.0129 42.1064 61.9611 42.33 60.94C42.5551 59.9146 42.9578 58.9365 43.52 58.05C43.7251 57.6718 43.9999 57.3359 44.33 57.06Z" fill="#FAFAFA"/>
<path d="M38.71 51.47C39.021 51.7059 39.2855 51.9975 39.49 52.33C40.0439 53.0928 40.4851 53.9314 40.8 54.82C41.1091 55.7065 41.2909 56.6324 41.34 57.57C41.3886 57.9577 41.3648 58.351 41.27 58.73C41.1405 57.4376 40.8826 56.1613 40.5 54.92C40.0218 53.7123 39.422 52.5564 38.71 51.47Z" fill="#FAFAFA"/>
<path d="M44.72 48.35C43.9347 49.1374 43.2434 50.0133 42.66 50.96C42.1634 51.9565 41.7939 53.0115 41.56 54.1C41.4881 52.9451 41.7745 51.7961 42.38 50.81C42.8961 49.7742 43.7113 48.9173 44.72 48.35Z" fill="#FAFAFA"/>
<path d="M42.1 43.29C42.513 44.102 42.6962 45.0114 42.63 45.92C42.6598 46.8329 42.4458 47.7372 42.01 48.54C41.92 48.54 42.3 47.37 42.32 45.92C42.34 44.47 42 43.31 42.1 43.29Z" fill="#FAFAFA"/>
<path d="M35.37 55C35.2044 54.6767 35.0607 54.3426 34.94 54C34.5658 53.1077 34.2485 52.1925 33.99 51.26C32.1768 45.0939 32.1768 38.5361 33.99 32.37C34.2684 31.4408 34.6023 30.5292 34.99 29.64C35.1077 29.2947 35.2549 28.9601 35.43 28.64C35.3455 28.9812 35.2352 29.3155 35.1 29.64C34.86 30.28 34.56 31.22 34.24 32.39C32.5735 38.5357 32.5735 45.0143 34.24 51.16C34.56 52.34 34.85 53.28 35.09 53.91C35.2159 54.2642 35.3096 54.629 35.37 55Z" fill="#FAFAFA"/>
<path d="M35.75 42.79C34.1167 45.205 33.4625 48.1506 33.92 51.03C33.7379 50.6364 33.6294 50.2127 33.6 49.78C33.3408 47.6866 33.8105 45.5678 34.93 43.78C35.1395 43.4019 35.4176 43.0662 35.75 42.79Z" fill="#FAFAFA"/>
<path d="M30.13 37.2C30.4352 37.4422 30.6987 37.7327 30.91 38.06C31.4603 38.8235 31.8981 39.6621 32.21 40.55C32.5264 41.435 32.7117 42.3614 32.76 43.3C32.8022 43.6879 32.7786 44.0801 32.69 44.46C32.5538 43.1686 32.2959 41.893 31.92 40.65C31.4343 39.4457 30.835 38.2905 30.13 37.2Z" fill="#FAFAFA"/>
<path d="M36.14 34.08C35.3527 34.8682 34.6582 35.7439 34.07 36.69C33.5816 37.6935 33.2124 38.7507 32.97 39.84C32.9117 38.6819 33.2008 37.5328 33.8 36.54C34.3131 35.5021 35.129 34.6443 36.14 34.08Z" fill="#FAFAFA"/>
<path d="M17.15 22.5C16.9749 22.1799 16.8277 21.8453 16.71 21.5C16.326 20.6094 15.9922 19.6979 15.71 18.77C13.9097 12.602 13.9097 6.04799 15.71 -0.119995C15.9913 -1.04821 16.3252 -1.95969 16.71 -2.85001C16.8306 -3.19422 16.9777 -3.52856 17.15 -3.85001C17.0655 -3.50879 16.9552 -3.17449 16.82 -2.85001C16.59 -2.21001 16.29 -1.27001 15.97 -0.100006C14.2967 6.04479 14.2967 12.5252 15.97 18.67C16.29 19.84 16.59 20.78 16.82 21.42C16.9592 21.7704 17.0696 22.1316 17.15 22.5Z" fill="#FAFAFA"/>
<path d="M17.52 10.3C15.8971 12.7233 15.244 15.6678 15.69 18.55C15.5165 18.1539 15.4117 17.7312 15.38 17.3C15.2491 16.2629 15.2964 15.2111 15.52 14.19C15.7451 13.1646 16.1478 12.1865 16.71 11.3C16.9209 10.9228 17.1948 10.5846 17.52 10.3Z" fill="#FAFAFA"/>
<path d="M11.9 4.72C12.211 4.95586 12.4755 5.24748 12.68 5.58C13.2321 6.33877 13.6701 7.1743 13.98 8.06C14.2957 8.9486 14.481 9.87827 14.53 10.82C14.5786 11.2077 14.5549 11.601 14.46 11.98C14.3305 10.6876 14.0726 9.41127 13.69 8.17C13.2118 6.96232 12.612 5.80639 11.9 4.72Z" fill="#FAFAFA"/>
<path d="M17.91 1.60001C17.1221 2.38509 16.4306 3.26126 15.85 4.21001C15.3534 5.20655 14.9839 6.26145 14.75 7.35001C14.6781 6.19507 14.9645 5.04609 15.57 4.06C16.0862 3.02424 16.9013 2.16726 17.91 1.60001Z" fill="#FAFAFA"/>
<path d="M32.33 5.62C32.5558 5.89478 32.7661 6.18189 32.96 6.48C33.5111 7.27171 34.0185 8.09294 34.48 8.94C37.5521 14.5839 38.9404 20.9907 38.48 27.4C38.4173 28.3625 38.3004 29.3207 38.13 30.27C38.0821 30.6084 38.0086 30.9427 37.91 31.27C37.9201 30.9149 37.9535 30.5608 38.01 30.21C38.11 29.54 38.2 28.56 38.26 27.34C38.5828 20.9828 37.2019 14.6548 34.26 9.00999C33.7 7.92999 33.26 7.08 32.84 6.5C32.6448 6.22203 32.4741 5.92758 32.33 5.62Z" fill="#FAFAFA"/>
<path d="M34.58 17.62C35.0597 16.2618 35.3327 14.8393 35.39 13.4C35.3453 11.9569 35.0753 10.5297 34.59 9.16998C34.8595 9.51361 35.0568 9.90818 35.17 10.33C35.5238 11.3147 35.7032 12.3536 35.7 13.4C35.694 14.4464 35.5114 15.4843 35.16 16.47C35.0356 16.8844 34.8392 17.2736 34.58 17.62Z" fill="#FAFAFA"/>
<path d="M41.27 21.86C40.9133 21.6997 40.5908 21.4722 40.32 21.19C39.6205 20.5667 39.0143 19.846 38.52 19.05C38.0162 18.2515 37.6353 17.3818 37.39 16.47C37.2614 16.1041 37.2004 15.7178 37.21 15.33C37.6157 16.562 38.1415 17.751 38.78 18.88C39.5091 19.9535 40.3432 20.9517 41.27 21.86Z" fill="#FAFAFA"/>
<path d="M36.07 26.2C36.671 25.2613 37.1578 24.2542 37.52 23.2C37.7926 22.118 37.927 21.0058 37.92 19.89C38.2348 21.007 38.1999 22.1935 37.82 23.29C37.5519 24.4178 36.9405 25.4345 36.07 26.2Z" fill="#FAFAFA"/>
<path d="M39.72 30.58C39.1891 29.8478 38.8245 29.0084 38.6517 28.1206C38.479 27.2327 38.5023 26.3179 38.72 25.44C38.82 25.44 38.72 26.64 38.98 28.06C39.24 29.48 39.8 30.54 39.72 30.58Z" fill="#FAFAFA"/>
<path d="M43.37 25.94C43.6017 26.2066 43.8123 26.4908 44 26.79C44.5521 27.5845 45.0595 28.4091 45.52 29.26C48.5921 34.9039 49.9804 41.3107 49.52 47.72C49.4623 48.6829 49.3454 49.6414 49.17 50.59C49.1207 50.9282 49.0472 51.2624 48.95 51.59C48.9601 51.2349 48.9935 50.8808 49.05 50.53C49.15 49.86 49.24 48.88 49.3 47.66C49.6228 41.3028 48.2418 34.9748 45.3 29.33C44.74 28.25 44.25 27.39 43.88 26.82C43.6848 26.542 43.5141 26.2476 43.37 25.94Z" fill="#FAFAFA"/>
<path d="M45.62 37.94C46.6863 35.2242 46.6863 32.2057 45.62 29.49C45.8807 29.834 46.0741 30.2242 46.19 30.64C46.5434 31.6283 46.7227 32.6704 46.72 33.72C46.7152 34.7633 46.5326 35.7981 46.18 36.78C46.063 37.1966 45.8734 37.5893 45.62 37.94Z" fill="#FAFAFA"/>
<path d="M52.31 42.18C51.9533 42.0196 51.6308 41.7922 51.36 41.51C49.9571 40.245 48.9412 38.6085 48.43 36.79C48.3077 36.4225 48.2469 36.0373 48.25 35.65C48.6577 36.8811 49.1835 38.07 49.82 39.2C50.5491 40.2734 51.3832 41.2717 52.31 42.18Z" fill="#FAFAFA"/>
<path d="M47.11 46.52C48.4217 44.6894 49.0771 42.4695 48.97 40.22C49.2724 41.3384 49.2376 42.5213 48.87 43.62C48.5942 44.7441 47.9798 45.7564 47.11 46.52Z" fill="#FAFAFA"/>
<path d="M50.76 50.9C50.2291 50.1678 49.8645 49.3284 49.6917 48.4406C49.519 47.5527 49.5423 46.6379 49.76 45.76C49.86 45.76 49.76 46.96 50.02 48.38C50.28 49.8 50.84 50.86 50.76 50.9Z" fill="#FAFAFA"/>
<path d="M18.15 41.34C18.4561 41.5183 18.7441 41.726 19.01 41.96C19.776 42.5506 20.5072 43.185 21.2 43.86C25.8333 48.3127 29.0922 54.0009 30.59 60.25C30.8222 61.1855 30.9992 62.1338 31.12 63.09C31.1829 63.4399 31.2164 63.7945 31.22 64.15C31.1228 63.8224 31.0493 63.4882 31 63.15C30.89 62.48 30.68 61.52 30.37 60.34C29.5672 57.2736 28.3671 54.3253 26.8 51.57C25.2132 48.8275 23.2808 46.3001 21.05 44.05C20.18 43.2 19.46 42.53 18.94 42.05C18.662 41.8302 18.3981 41.5931 18.15 41.34Z" fill="#FAFAFA"/>
<path d="M23.9 52.1C24.1045 49.1919 23.2046 46.3137 21.38 44.04C21.739 44.2869 22.045 44.6031 22.28 44.97C23.5459 46.6547 24.1922 48.7243 24.11 50.83C24.1238 51.263 24.0524 51.6945 23.9 52.1Z" fill="#FAFAFA"/>
<path d="M31.56 54.14C31.1707 54.0969 30.7936 53.978 30.45 53.79C28.7294 53.0059 27.2687 51.7465 26.24 50.16C26.0074 49.8625 25.8342 49.523 25.73 49.16C27.1656 51.3408 29.1859 53.0735 31.56 54.16V54.14Z" fill="#FAFAFA"/>
<path d="M27.9 59.84C28.1924 58.7665 28.3569 57.6621 28.39 56.55C28.3203 55.4392 28.1155 54.3412 27.78 53.28C28.4164 54.2454 28.7379 55.3843 28.7 56.54C28.7787 57.6961 28.4993 58.8483 27.9 59.84Z" fill="#FAFAFA"/>
<path d="M32.7 62.92C31.9301 62.4344 31.313 61.7411 30.92 60.92C30.4439 60.1456 30.1816 59.2588 30.16 58.35C30.26 58.35 30.49 59.5 31.16 60.77C31.6354 61.5131 32.1494 62.2308 32.7 62.92Z" fill="#FAFAFA"/>
<g opacity="0.8">
<path d="M42.15 70.69C42.1005 68.5957 41.4667 66.557 40.3202 64.8038C39.1736 63.0506 37.5599 61.6527 35.6612 60.7678C33.7624 59.8829 31.6542 59.5462 29.5743 59.7957C27.4944 60.0453 25.5256 60.8711 23.89 62.18L25.98 69.25L35.06 73.68L42.15 70.69Z" fill="white"/>
</g>
<g opacity="0.8">
<path d="M54.26 43.83C52.0345 43.6941 49.9017 42.8906 48.1398 41.5243C46.3779 40.158 45.0687 38.2923 44.3831 36.1708C43.6975 34.0492 43.6673 31.7702 44.2965 29.6312C44.9256 27.4922 46.1849 25.5925 47.91 24.18L57.25 30.13L54.26 43.83Z" fill="white"/>
</g>
</g>
</svg>
